<?xml version="1.0" encoding="utf-8"?>
<!-- Generator: Adobe Illustrator 16.0.0, SVG Export Plug-In . SVG Version: 6.00 Build 0)  -->
<!DOCTYPE svg PUBLIC "-//W3C//DTD SVG 1.1//EN" "http://www.w3.org/Graphics/SVG/1.1/DTD/svg11.dtd">
<svg version="1.1" xmlns="http://www.w3.org/2000/svg" xmlns:xlink="http://www.w3.org/1999/xlink" x="0px" y="0px" width="48px"
	 height="48px" viewBox="0 0 48 48" enable-background="new 0 0 48 48" xml:space="preserve">
<g id="Circle">
	<path stroke="#000000" stroke-miterlimit="10" d="M19.889,8.057C12.76,9.331,10.743,11.889,8.71,18.393
		C7,23.864,6.812,31.807,9.32,34.314c10.23,10.23,19.256,7.02,19.376,6.979c8.74-2.981,13.222-7.182,13.212-16.396
		c-0.004-3.442-2.913-13.809-8.74-15.65C30.438,8.384,22.328,7.621,19.889,8.057z"/>
</g>
<g id="Inner">
	<g>
		<path fill="#FFFFFF" d="M15.011,33.027c0,0,0.994-1.232,2.486-3.08c1.511-1.835,3.556-4.261,5.774-6.564
			c2.225-2.299,4.581-4.501,6.89-5.781c0.57-0.325,1.169-0.57,1.742-0.748c0.599-0.153,1.172-0.256,1.729-0.188
			c0.265,0.008,0.518,0.073,0.738,0.141c0.221,0.056,0.401,0.132,0.544,0.216c0.288,0.152,0.436,0.247,0.436,0.247l-1.789,2.385
			c0,0-0.022-0.006-0.054-0.041c-0.011-0.024-0.036-0.043-0.077-0.055c-0.034-0.021-0.074-0.055-0.157-0.062
			c-0.128-0.058-0.402-0.047-0.743-0.01c-0.354,0.068-0.79,0.174-1.279,0.383c-1.977,0.788-4.561,2.63-6.968,4.608
			c-2.424,1.987-4.733,4.147-6.444,5.787C16.142,31.922,15.011,33.027,15.011,33.027z"/>
	</g>
	<g>
		<path fill="#FFFFFF" d="M14.638,14.569c0,0,0.116,0.088,0.333,0.254c0.193,0.158,0.446,0.376,0.76,0.656
			c0.626,0.558,1.49,1.358,2.512,2.332c2.042,1.946,4.708,4.584,7.286,7.311c2.576,2.726,5.066,5.543,6.719,7.833
			c0.825,1.143,1.438,2.162,1.714,2.946c0.139,0.39,0.183,0.724,0.144,0.944c-0.042,0.222-0.131,0.311-0.122,0.313
			c-0.008-0.002,0.071-0.102,0.091-0.317c0.018-0.216-0.056-0.53-0.226-0.896c-0.338-0.732-1.03-1.672-1.947-2.716
			c-1.834-2.095-4.555-4.641-7.354-7.089c-2.799-2.45-5.682-4.806-7.869-6.527c-1.093-0.86-2.013-1.563-2.654-2.034
			c-0.314-0.223-0.56-0.397-0.728-0.517c-0.14-0.086-0.215-0.133-0.215-0.133L14.638,14.569z"/>
	</g>
</g>
</svg>
